<?xml version="1.0" encoding="UTF-8" standalone="no"?>
<!-- Created with Inkscape (http://www.inkscape.org/) -->

<svg
   xmlns:dc="http://purl.org/dc/elements/1.1/"
   xmlns:cc="http://creativecommons.org/ns#"
   xmlns:rdf="http://www.w3.org/1999/02/22-rdf-syntax-ns#"
   xmlns:svg="http://www.w3.org/2000/svg"
   xmlns="http://www.w3.org/2000/svg"
   xmlns:xlink="http://www.w3.org/1999/xlink"
   xmlns:sodipodi="http://sodipodi.sourceforge.net/DTD/sodipodi-0.dtd"
   xmlns:inkscape="http://www.inkscape.org/namespaces/inkscape"
   width="693"
   height="297"
   id="svg3783"
   version="1.1"
   inkscape:version="0.48.2 r9819"
   sodipodi:docname="icons.svg">
  <defs
     id="defs3785">
    <inkscape:perspective
       id="perspective3861"
       inkscape:persp3d-origin="50 : 33.333333 : 1"
       inkscape:vp_z="100 : 50 : 1"
       inkscape:vp_y="0 : 1000 : 0"
       inkscape:vp_x="0 : 50 : 1"
       sodipodi:type="inkscape:persp3d" />
    <inkscape:perspective
       id="perspective3861-4"
       inkscape:persp3d-origin="50 : 33.333333 : 1"
       inkscape:vp_z="100 : 50 : 1"
       inkscape:vp_y="0 : 1000 : 0"
       inkscape:vp_x="0 : 50 : 1"
       sodipodi:type="inkscape:persp3d" />
    <inkscape:perspective
       id="perspective3861-1"
       inkscape:persp3d-origin="50 : 33.333333 : 1"
       inkscape:vp_z="100 : 50 : 1"
       inkscape:vp_y="0 : 1000 : 0"
       inkscape:vp_x="0 : 50 : 1"
       sodipodi:type="inkscape:persp3d" />
    <inkscape:perspective
       id="perspective3861-5"
       inkscape:persp3d-origin="50 : 33.333333 : 1"
       inkscape:vp_z="100 : 50 : 1"
       inkscape:vp_y="0 : 1000 : 0"
       inkscape:vp_x="0 : 50 : 1"
       sodipodi:type="inkscape:persp3d" />
    <inkscape:perspective
       id="perspective3861-2"
       inkscape:persp3d-origin="50 : 33.333333 : 1"
       inkscape:vp_z="100 : 50 : 1"
       inkscape:vp_y="0 : 1000 : 0"
       inkscape:vp_x="0 : 50 : 1"
       sodipodi:type="inkscape:persp3d" />
    <linearGradient
       id="linearGradient3755">
      <stop
         id="stop3757"
         offset="0"
         style="stop-color:#ffffff;stop-opacity:1;" />
      <stop
         style="stop-color:#ffffff;stop-opacity:0.73184359;"
         offset="0.36296296"
         id="stop3781" />
      <stop
         id="stop3759"
         offset="1"
         style="stop-color:#ffffff;stop-opacity:0.06145252;" />
    </linearGradient>
    <inkscape:perspective
       id="perspective3861-8"
       inkscape:persp3d-origin="50 : 33.333333 : 1"
       inkscape:vp_z="100 : 50 : 1"
       inkscape:vp_y="0 : 1000 : 0"
       inkscape:vp_x="0 : 50 : 1"
       sodipodi:type="inkscape:persp3d" />
    <inkscape:perspective
       id="perspective3861-12"
       inkscape:persp3d-origin="50 : 33.333333 : 1"
       inkscape:vp_z="100 : 50 : 1"
       inkscape:vp_y="0 : 1000 : 0"
       inkscape:vp_x="0 : 50 : 1"
       sodipodi:type="inkscape:persp3d" />
    <inkscape:perspective
       id="perspective3861-7"
       inkscape:persp3d-origin="50 : 33.333333 : 1"
       inkscape:vp_z="100 : 50 : 1"
       inkscape:vp_y="0 : 1000 : 0"
       inkscape:vp_x="0 : 50 : 1"
       sodipodi:type="inkscape:persp3d" />
    <inkscape:perspective
       id="perspective3861-50"
       inkscape:persp3d-origin="50 : 33.333333 : 1"
       inkscape:vp_z="100 : 50 : 1"
       inkscape:vp_y="0 : 1000 : 0"
       inkscape:vp_x="0 : 50 : 1"
       sodipodi:type="inkscape:persp3d" />
    <linearGradient
       inkscape:collect="always"
       xlink:href="#linearGradient3755"
       id="linearGradient4935"
       gradientUnits="userSpaceOnUse"
       gradientTransform="translate(952.6096,-1053.1198)"
       x1="16.920055"
       y1="1002.8647"
       x2="83.590118"
       y2="1002.8647" />
    <linearGradient
       inkscape:collect="always"
       xlink:href="#linearGradient3755-5"
       id="linearGradient4935-6"
       gradientUnits="userSpaceOnUse"
       gradientTransform="translate(952.6096,-1053.1198)"
       x1="16.920055"
       y1="1002.8647"
       x2="83.590118"
       y2="1002.8647" />
    <linearGradient
       id="linearGradient3755-5">
      <stop
         id="stop3757-0"
         offset="0"
         style="stop-color:#ffffff;stop-opacity:1;" />
      <stop
         style="stop-color:#ffffff;stop-opacity:0.73184359;"
         offset="0.36296296"
         id="stop3781-9" />
      <stop
         id="stop3759-0"
         offset="1"
         style="stop-color:#ffffff;stop-opacity:0.06145252;" />
    </linearGradient>
    <linearGradient
       inkscape:collect="always"
       xlink:href="#linearGradient3755"
       id="linearGradient4229"
       x1="-265.07437"
       y1="482.10916"
       x2="-238.75786"
       y2="482.10916"
       gradientUnits="userSpaceOnUse" />
    <linearGradient
       inkscape:collect="always"
       xlink:href="#linearGradient3755"
       id="linearGradient4241"
       gradientUnits="userSpaceOnUse"
       x1="-258.72223"
       y1="450.5614"
       x2="-242.60211"
       y2="513.80743"
       gradientTransform="matrix(0.33000068,0,0,0.33000437,182.93966,680.93268)" />
  </defs>
  <sodipodi:namedview
     id="base"
     pagecolor="#3e3e3e"
     bordercolor="#666666"
     borderopacity="1.0"
     inkscape:pageopacity="0.21176471"
     inkscape:pageshadow="2"
     inkscape:zoom="1"
     inkscape:cx="353.63481"
     inkscape:cy="212.20002"
     inkscape:document-units="px"
     inkscape:current-layer="layer2"
     showgrid="false"
     inkscape:window-width="1272"
     inkscape:window-height="1369"
     inkscape:window-x="0"
     inkscape:window-y="0"
     inkscape:window-maximized="1" />
  <metadata
     id="metadata3788">
    <rdf:RDF>
      <cc:Work
         rdf:about="">
        <dc:format>image/svg+xml</dc:format>
        <dc:type
           rdf:resource="http://purl.org/dc/dcmitype/StillImage" />
        <dc:title />
      </cc:Work>
    </rdf:RDF>
  </metadata>
  <g
     inkscape:groupmode="layer"
     id="layer2"
     inkscape:label="icons"
     transform="translate(0,-755.36218)"
     style="display:inline">
    <path
       style="font-size:medium;font-style:normal;font-variant:normal;font-weight:normal;font-stretch:normal;text-indent:0;text-align:start;text-decoration:none;line-height:normal;letter-spacing:normal;word-spacing:normal;text-transform:none;direction:ltr;block-progression:tb;writing-mode:lr-tb;text-anchor:start;baseline-shift:baseline;color:#000000;fill:#ffffff;fill-opacity:1;stroke:none;stroke-width:6.74354649;marker:none;visibility:visible;display:inline;overflow:visible;enable-background:accumulate;font-family:Sans;-inkscape-font-specification:Sans"
       d="M 510.9959,1021.5803 C 503.14808,1021.5803 496.74401,1027.9844 496.74401,1035.8324 496.74401,1043.6802 503.14808,1050.0742 510.9959,1050.0742 518.84374,1050.0742 525.2375,1043.6802 525.2375,1035.8324 525.2375,1027.9844 518.84374,1021.5803 510.9959,1021.5803 z M 510.9959,1024.5606 C 517.23617,1024.5606 522.25715,1029.5921 522.25715,1035.8324 522.25715,1042.0728 517.23617,1047.0937 510.9959,1047.0937 504.75563,1047.0937 499.72434,1042.0728 499.72434,1035.8324 499.72434,1029.5921 504.75563,1024.5606 510.9959,1024.5606 z M 510.92372,1027.6544 C 510.40693,1027.6641 509.96578,1027.8235 509.62433,1028.1701 509.28286,1028.5165 509.10087,1029.0042 509.0881,1029.5726 509.10097,1030.1515 509.28286,1030.6057 509.62433,1030.9546 509.96578,1031.3033 510.40693,1031.4816 510.92372,1031.4908 511.45097,1031.4816 511.87935,1031.3033 512.22311,1030.9546 512.56684,1030.6057 512.74702,1030.1515 512.75934,1029.5726 512.75112,1029.0234 512.57513,1028.5557 512.24375,1028.201 511.91229,1027.8464 511.47974,1027.6668 510.92372,1027.6544 z M 512.29526,1032.5736 C 510.78332,1033.2054 509.36256,1033.5724 508.0259,1033.6564 L 508.0259,1034.533 C 508.65952,1034.5038 509.04933,1034.59 509.21185,1034.7908 509.37435,1034.9917 509.46243,1035.484 509.4387,1036.2656 L 509.4387,1041.2775 C 509.46115,1042.0627 509.37844,1042.5773 509.21185,1042.8037 509.04521,1043.0301 508.64997,1043.1284 508.0259,1043.1027 L 508.0259,1044.0102 513.95562,1044.0102 513.95562,1043.1027 C 513.39362,1043.1282 513.0321,1043.0279 512.87279,1042.8037 512.71346,1042.5796 512.64783,1042.0831 512.66651,1041.3085 L 512.66651,1032.7902 512.29526,1032.5736 z"
       id="path3926-1"
       inkscape:connector-curvature="0" />
    <g
       transform="matrix(0.30333629,0,0,0.30334018,396.92045,533.78115)"
       id="layer1-1-6"
       inkscape:label="Ebene 1"
       style="fill:#ffffff;fill-opacity:1;stroke:none">
      <g
         transform="translate(-5,1.25)"
         id="g3881-1-3"
         style="fill:#ffffff;fill-opacity:1;stroke:none">
        <path
           style="fill:#ffffff;fill-opacity:1;stroke:none"
           d="M 657.34375,477.65625 657.34375,551.21875 714.96875,551.21875 714.96875,496.84375 696.375,496.84375 695.71875,496.84375 695.71875,496.1875 695.71875,477.65625 z M 697.03125,477.65625 697.03125,495.53125 714.96875,495.53125 705.5,486.03125 697.09375,477.65625 z M 688.91147,507.04554 701.74436,507.04554 701.74436,529.13087 709.96875,529.13087 702.66606,538.17061 695.32792,547.28125 688.02522,538.17061 680.72253,529.13087 688.91147,529.13087 z"
           transform="matrix(1.0879028,0,0,1.0879028,-691.47265,441.45607)"
           id="rect3859-6"
           inkscape:connector-curvature="0"
           sodipodi:nodetypes="ccccccccccccccccccccccccc" />
      </g>
    </g>
    <path
       style="fill:#ffffff;fill-opacity:1;fill-rule:evenodd;stroke:none"
       d="M 112.80327,923.80944 112.80327,949.99326 117.1861,949.99326 117.1861,936.90649 C 120.02684,939.73384 122.85988,942.57004 125.69393,945.40412 L 128.47829,942.61971 122.74453,936.89618 128.46797,931.18298 125.68361,928.39856 117.1964,936.89618 117.18611,936.89618 117.18611,923.80944 112.80328,923.80944 z M 104.28514,928.39856 101.50075,931.18298 107.22421,936.89618 101.50075,942.61971 104.28514,945.40412 C 107.11918,942.57004 109.94188,939.73384 112.78264,936.90649 L 112.78264,936.8962 104.28514,928.39858 z"
       id="rect3968-4"
       inkscape:connector-curvature="0" />
    <path
       style="fill:#ffffff;fill-opacity:1;fill-rule:evenodd;stroke:none"
       d="M 208.25915,923.22922 205.45414,926.03426 C 208.3143,928.89443 211.17048,931.75772 214.02384,934.6247 L 214.03414,934.6247 214.03414,934.61438 222.62445,926.04458 219.80915,923.23955 214.03414,929.01463 208.25913,923.22923 z M 200.82382,934.635 200.82382,939.05911 214.02384,939.05911 C 211.17048,941.92613 208.3143,944.77905 205.45414,947.63926 L 208.25915,950.4546 214.03416,944.6692 219.80916,950.44429 222.62447,947.62895 214.03416,939.06943 214.03416,939.05913 227.24448,939.05913 227.24448,934.63502 200.82382,934.63502 z"
       id="rect3968-1-3"
       inkscape:connector-curvature="0" />
    <g
       transform="matrix(0.34982748,0,0,0.36308319,-1.5769053,572.69322)"
       id="layer1-761-6"
       inkscape:label="Ebene 1">
      <rect
         transform="matrix(0,1,-1,0,0,0)"
         y="-84.852814"
         x="969.52966"
         height="69.19545"
         width="66.670067"
         id="rect2985-0"
         style="fill:url(#linearGradient4935-6);fill-opacity:1;fill-rule:evenodd;stroke:none" />
    </g>
    <g
       transform="matrix(0.39134349,0,0,0.39134851,193.4742,643.22428)"
       id="layer1-27-1"
       inkscape:label="Ebene 1">
      <g
         transform="translate(-5,1.25)"
         id="g3881-9-6">
        <path
           inkscape:connector-curvature="0"
           id="path3916-5"
           d="M 49.756592,1034.9124 C 49.711792,1034.8434 49.675092,1033.6294 49.675092,1032.215 49.675092,1029.0422 49.794122,1029.3046 47.689572,1027.8384 44.483692,1025.605 42.604582,1023.816 40.194862,1020.7033 36.780722,1016.2932 35.651662,1015.1017 32.554762,1012.6403 29.164602,1009.9459 27.278742,1007.8588 26.564732,1006.0111 25.481532,1003.208 26.920652,1001.1206 30.064632,1000.9346 31.589262,1000.8446 32.824262,1001.1769 34.761882,1002.1992 35.831742,1002.7636 36.410692,1003.1166 40.311592,1005.5823 42.514492,1006.9748 43.693962,1007.5536 44.472142,1007.6242 45.632632,1007.7294 45.744422,1007.4607 45.737832,1004.5818 45.732832,1002.4271 45.544932,1000.8073 45.036792,998.5409 44.442622,995.89057 43.862542,994.27697 41.290732,988.12017 38.265322,980.87757 37.421222,978.14617 37.401362,975.53487 37.394362,974.56417 37.433162,974.15767 37.572712,973.75787 37.827732,973.02707 38.279012,972.38677 38.777292,972.04877 39.153632,971.79347 39.293342,971.75927 39.959202,971.75937 40.637132,971.75957 40.776052,971.79537 41.318142,972.10827 43.119952,973.14867 45.322102,976.01237 47.321042,979.91457 48.477502,982.17207 51.356562,988.28257 52.394652,990.68267 52.848542,991.73217 53.271832,992.60807 53.335302,992.62927 53.518542,992.69027 53.477822,990.56187 53.248902,988.11367 52.942482,984.83637 52.586282,981.96467 52.035552,978.33157 51.336692,973.72137 51.213732,972.59177 51.210502,970.75237 51.207502,968.90937 51.351972,968.10857 51.860782,967.15397 52.210492,966.49787 52.547932,966.19367 53.305202,965.85207 53.915282,965.57687 55.114422,965.54797 55.665712,965.79507 56.949672,966.37087 57.923772,967.70637 58.830442,970.13397 59.765272,972.63707 60.400122,975.66587 61.703442,983.84097 62.676332,989.94337 63.077522,992.22377 63.218332,992.45167 63.290432,992.56837 63.340852,992.56017 63.513822,992.40367 64.200562,991.78217 64.705642,987.39807 65.028092,979.25987 65.254432,973.54747 65.513882,971.56757 66.253942,969.90567 66.636172,969.04727 67.105742,968.49467 67.761312,968.13157 68.264042,967.85307 68.374532,967.83237 69.358572,967.83237 70.312822,967.83237 70.465922,967.85837 70.931212,968.10437 72.028642,968.68327 72.582782,969.79127 72.946762,972.13437 73.304592,974.43787 73.228822,984.65397 72.817382,989.57987 72.540042,992.90027 72.608812,994.46297 73.032252,994.46297 73.387732,994.46297 74.430852,992.39447 75.205502,990.15337 75.745852,988.59007 76.176882,986.90887 76.858382,983.70647 77.462482,980.86767 77.922302,979.30277 78.434962,978.34097 79.157652,976.98507 80.081452,976.32827 81.275472,976.32137 82.323002,976.31137 82.916942,976.50237 83.407382,976.99277 84.240682,977.82607 84.515892,979.11537 84.428612,981.77697 84.338312,984.52867 83.964102,986.77157 82.490002,993.39457 81.156602,999.38545 81.234672,998.6593 81.306682,1004.4013 81.387382,1010.835 81.182672,1014.0908 80.479022,1017.5654 79.965242,1020.1024 79.453202,1021.602 78.071022,1024.6174 76.695332,1027.6187 76.688882,1027.6503 76.660122,1031.5142 76.647522,1033.2032 76.602722,1034.687 76.560422,1034.8116 L 76.483522,1035.0381 63.160742,1035.0381 C 52.613072,1035.0381 49.820982,1035.0121 49.756502,1034.9122 z"
           style="fill:#ffffff;fill-opacity:1" />
      </g>
    </g>
    <path
       id="text3900-4"
       style="font-size:101.09299469px;font-style:normal;font-weight:normal;line-height:125%;letter-spacing:0px;word-spacing:0px;fill:#ffffff;fill-opacity:1;stroke:#ffffff;stroke-width:1.58809471;stroke-linecap:butt;stroke-linejoin:round;stroke-miterlimit:4;stroke-opacity:1;stroke-dasharray:none;font-family:Sans"
       d="M 200.43942,835.85954 200.43942,839.98181 204.56167,839.98181 204.56167,835.85954 200.43942,835.85954 z M 211.85192,835.85954 211.85192,839.98181 215.97416,839.98181 215.97416,835.85954 211.85192,835.85954 z M 223.26442,835.85954 223.26442,839.98181 227.38666,839.98181 227.38666,835.85954 223.26442,835.85954 z"
       inkscape:connector-curvature="0" />
    <path
       style="font-size:medium;font-style:normal;font-variant:normal;font-weight:normal;font-stretch:normal;text-indent:0;text-align:start;text-decoration:none;line-height:normal;letter-spacing:normal;word-spacing:normal;text-transform:none;direction:ltr;block-progression:tb;writing-mode:lr-tb;text-anchor:start;baseline-shift:baseline;color:#000000;fill:#ffffff;fill-opacity:1;stroke:none;stroke-width:8.42943287;marker:none;visibility:visible;display:inline;overflow:visible;enable-background:accumulate;font-family:Sans;-inkscape-font-specification:Sans"
       d="M 313.03964,1021.735 C 305.25096,1021.735 298.88056,1028.0951 298.88056,1035.884 298.88056,1043.6727 305.25096,1050.0329 313.03964,1050.0329 320.82833,1050.0329 327.1781,1043.6727 327.1781,1035.884 327.1781,1028.0951 320.82833,1021.735 313.03964,1021.735 z M 313.03964,1025.334 C 318.88382,1025.334 323.56872,1030.0396 323.56872,1035.884 323.56872,1041.7283 318.88382,1046.4233 313.03964,1046.4233 307.19546,1046.4233 302.48994,1041.7283 302.48994,1035.884 302.48994,1030.0396 307.19546,1025.334 313.03964,1025.334 z M 312.42089,1028.3351 A 1.4393401,1.4393587 0 0 0 310.98747,1029.7685 L 310.98747,1033.8317 306.92432,1033.8317 A 1.4393401,1.4393587 0 0 0 305.49088,1035.2756 L 305.49088,1036.4924 A 1.4393401,1.4393587 0 0 0 306.92432,1037.9362 L 310.98747,1037.9362 310.98747,1041.9994 A 1.4393401,1.4393587 0 0 0 312.42089,1043.4328 L 313.63778,1043.4328 A 1.4393401,1.4393587 0 0 0 315.08152,1041.9994 L 315.08152,1037.9362 319.13433,1037.9362 A 1.4393401,1.4393587 0 0 0 320.57809,1036.4924 L 320.57809,1035.2756 A 1.4393401,1.4393587 0 0 0 319.13433,1033.8317 L 315.08152,1033.8317 315.08152,1029.7685 A 1.4393401,1.4393587 0 0 0 313.63778,1028.3351 L 312.42089,1028.3351 z"
       id="path3926-6-7"
       inkscape:connector-curvature="0" />
    <path
       style="font-size:medium;font-style:normal;font-variant:normal;font-weight:normal;font-stretch:normal;text-indent:0;text-align:start;text-decoration:none;line-height:normal;letter-spacing:normal;word-spacing:normal;text-transform:none;direction:ltr;block-progression:tb;writing-mode:lr-tb;text-anchor:start;baseline-shift:baseline;color:#000000;fill:#ffffff;fill-opacity:1;stroke:none;stroke-width:8.42943287;marker:none;visibility:visible;display:inline;overflow:visible;enable-background:accumulate;font-family:Sans;-inkscape-font-specification:Sans"
       d="M 412.02239,1021.6292 C 404.23959,1021.6292 397.88394,1027.9952 397.88394,1035.7782 397.88394,1043.5609 404.23959,1049.9063 412.02239,1049.9063 419.80517,1049.9063 426.15049,1043.5609 426.15049,1035.7782 426.15049,1027.9952 419.80517,1021.6292 412.02239,1021.6292 z M 412.02239,1025.2282 C 417.86213,1025.2282 422.55146,1029.9382 422.55146,1035.7782 422.55146,1041.618 417.86213,1046.3072 412.02239,1046.3072 406.18262,1046.3072 401.47269,1041.618 401.47269,1035.7782 401.47269,1029.9382 406.18262,1025.2282 412.02239,1025.2282 z M 405.91739,1033.7156 A 1.438249,1.4382675 0 0 0 404.47362,1035.1593 L 404.47362,1036.3762 A 1.438249,1.4382675 0 0 0 405.91739,1037.82 L 418.11708,1037.82 A 1.438249,1.4382675 0 0 0 419.55053,1036.3762 L 419.55053,1035.1593 A 1.438249,1.4382675 0 0 0 418.11708,1033.7156 L 405.91739,1033.7156 z"
       id="path3926-0-9"
       inkscape:connector-curvature="0" />
    <path
       style="font-size:medium;font-style:normal;font-variant:normal;font-weight:normal;font-stretch:normal;text-indent:0;text-align:start;text-decoration:none;line-height:normal;letter-spacing:normal;word-spacing:normal;text-transform:none;direction:ltr;block-progression:tb;writing-mode:lr-tb;text-anchor:start;baseline-shift:baseline;color:#000000;fill:#ffffff;fill-opacity:1;stroke:none;stroke-width:12;marker:none;visibility:visible;display:inline;overflow:visible;enable-background:accumulate;font-family:Sans;-inkscape-font-specification:Sans"
       d="M 116.21842,1022.9274 121.71499,1026.1035 127.21156,1029.2695 121.71499,1032.4458 116.21842,1035.6221 116.21842,1031.2393 109.16467,1031.2393 C 108.1879,1031.2393 107.46309,1031.9641 107.46309,1032.9409 L 107.46309,1042.4182 C 107.46309,1043.3949 108.1879,1044.1197 109.16467,1044.1197 L 119.21936,1044.1197 119.21936,1047.9664 C 119.21936,1048.0042 119.22858,1048.042 119.22967,1048.0798 L 109.16464,1048.0798 C 106.06254,1048.0798 103.50308,1045.5203 103.50308,1042.4182 L 103.50308,1032.9409 C 103.50308,1029.8387 106.06254,1027.2792 109.16464,1027.2792 L 116.21841,1027.2792 116.21841,1022.9274 z"
       id="rect5334"
       inkscape:connector-curvature="0" />
    <path
       inkscape:connector-curvature="0"
       style="font-size:medium;font-style:normal;font-variant:normal;font-weight:normal;font-stretch:normal;text-indent:0;text-align:start;text-decoration:none;line-height:normal;letter-spacing:normal;word-spacing:normal;text-transform:none;direction:ltr;block-progression:tb;writing-mode:lr-tb;text-anchor:start;baseline-shift:baseline;color:#000000;fill:#ffffff;fill-opacity:1;stroke:none;stroke-width:12;marker:none;visibility:visible;display:inline;overflow:visible;enable-background:accumulate;font-family:Sans;-inkscape-font-specification:Sans"
       d="M 14.595618,1023.0435 9.0990498,1026.2196 3.6024803,1029.3856 9.0990498,1032.562 14.595618,1035.7382 14.595618,1031.3554 21.649376,1031.3554 C 22.626142,1031.3554 23.350941,1032.0802 23.350941,1033.0569 L 23.350941,1042.5342 C 23.350941,1043.5109 22.626142,1044.2359 21.649376,1044.2359 L 11.594677,1044.2359 11.594677,1048.0824 C 11.594677,1048.1204 11.585471,1048.1582 11.584381,1048.1958 L 21.649392,1048.1958 C 24.751505,1048.1958 27.310961,1045.6364 27.310961,1042.5342 L 27.310961,1033.0569 C 27.310961,1029.9547 24.751505,1027.3953 21.649392,1027.3953 L 14.595635,1027.3953 14.595635,1023.0435 z"
       id="rect5334-8" />
    <path
       style="fill:none;stroke:#ffffff;stroke-width:2.31001782;stroke-linecap:round;stroke-miterlimit:4;stroke-opacity:1;stroke-dasharray:none;display:inline"
       d="M 3.8907066,827.41453 C 12.055831,824.98195 18.423225,824.9109 13.663455,837.87858 9.3506859,849.6284 18.2206,843.72279 27.352932,849.5286"
       id="path4102-1-7"
       inkscape:connector-curvature="0"
       sodipodi:nodetypes="csc" />
    <rect
       style="fill:#ffffff;fill-opacity:1;fill-rule:evenodd;stroke:none"
       id="rect4199"
       width="8.6844673"
       height="20.907282"
       x="317.2327"
       y="770.15399"
       transform="matrix(0.96592499,0.25882215,-0.25881595,0.96592666,0,0)" />
    <rect
       style="fill:url(#linearGradient4241);fill-opacity:1;fill-rule:evenodd;stroke:none;display:inline"
       id="rect4199-8"
       width="8.6844673"
       height="20.907282"
       x="95.464928"
       y="829.57721"
       transform="matrix(-0.96592499,0.25882215,0.25881595,0.96592666,0,0)" />
    <g
       style="display:inline"
       id="g4497"
       transform="matrix(0.3300004,0,0,0.33000464,-832.42858,852.27707)">
      <path
         d="M 3753.0025,260.45893 C 3794.4347,276.49508 3728.1674,218.2095 3733.1266,218.98623 3747.4331,221.22695 3775.4487,248.90488 3784.5327,256.68554 3787.1381,258.91722 3772.1573,228.52407 3775.7435,230.51654 3790.0586,238.47012 3794.1727,252.17355 3802.2455,261.35762 3803.7728,263.09546 3809.7696,248.24623 3812.3993,256.7724 3813.9751,261.88165 3809.2951,288.8987 3789.9832,295.40522"
         id="drawing83"
         inkscape:connector-curvature="0"
         style="fill:#ffffff;fill-opacity:1;stroke:none"
         sodipodi:nodetypes="csssssc" />
      <rect
         style="fill:#ffffff;fill-opacity:1;fill-rule:evenodd;stroke:none;display:inline"
         id="rect4243"
         width="9.6307039"
         height="86.836853"
         x="-2428.4646"
         y="2441.9978"
         transform="matrix(-0.70710678,-0.70710678,0.70710678,-0.70710678,0,0)" />
      <rect
         style="fill:#ffffff;fill-opacity:1;fill-rule:evenodd;stroke:none;display:inline"
         id="rect4243-2"
         width="9.6307039"
         height="86.836853"
         x="2480.6011"
         y="2380.2307"
         transform="matrix(0.70710678,-0.70710678,0.70710678,0.70710678,0,0)" />
      <rect
         style="fill:#ffffff;fill-opacity:0.27027025;fill-rule:evenodd;stroke:none;display:inline"
         id="rect4263"
         width="41.200115"
         height="57.997955"
         x="3450.8147"
         y="-72.8144" />
    </g>
    <rect
       style="fill:#ffffff;fill-opacity:1;fill-rule:evenodd;stroke:none;display:inline"
       id="rect4045"
       width="24.471651"
       height="14.831494"
       x="498.70947"
       y="831.05707" />
    <rect
       style="fill:none;stroke:#ffffff;stroke-width:2.64001989;stroke-linejoin:round;stroke-miterlimit:4;stroke-opacity:1;stroke-dasharray:none;display:inline"
       id="rect4045-4"
       width="24.471651"
       height="14.831494"
       x="597.70844"
       y="830.84528" />
    <path
       style="fill:#ffffff;fill-opacity:1;stroke:none;display:inline"
       d="M 597.89534,926.30646 C 606.06046,923.87387 612.42787,923.80282 607.66808,936.7705 603.35532,948.52034 612.22524,942.61472 621.35757,948.42053"
       id="path4102-1-7-1"
       inkscape:connector-curvature="0"
       sodipodi:nodetypes="csc" />
  </g>
  <g
     inkscape:label="grid"
     inkscape:groupmode="layer"
     id="layer1"
     style="display:inline"
     transform="translate(0,-755.36218)" />
</svg>
